<svg id="Layer_2" data-name="Layer 2" xmlns="http://www.w3.org/2000/svg" viewBox="0 0 500 500"><defs><style>.cls-1{fill:#7E7E7E;}</style></defs><title>icons</title><path class="cls-1" d="M250,499C112.69,499,1,387.32,1,250S112.69,1,250,1,499,112.68,499,250,387.31,499,250,499Zm0-479.28C123,19.75,19.75,123,19.75,250S123,480.25,250,480.25,480.25,377,480.25,250,377,19.75,250,19.75Z"/><path class="cls-1" d="M384.63,309.77H115.37a9.39,9.39,0,0,1-9.39-9.39V136.6a18.56,18.56,0,0,1,18.52-18.55h251A18.56,18.56,0,0,1,394,136.6V300.38A9.39,9.39,0,0,1,384.63,309.77ZM124.75,291H375.23V136.84H124.5Z"/><path class="cls-1" d="M397.6,381.91H102.21c-10.54,0-19.11-8.31-19.11-18.51V342.47a9.39,9.39,0,0,1,9.39-9.39H407.3a9.39,9.39,0,0,1,9.39,9.39V363.4C416.69,373.6,408.13,381.91,397.6,381.91ZM101.89,351.86V363.4l295.71-.28,0.17-11.26H101.89Z"/><path class="cls-1" d="M92.49,351.86A9.19,9.19,0,0,1,88,350.68a9.38,9.38,0,0,1-3.7-12.75l24.52-44.53a9.39,9.39,0,0,1,16.46,9.06L100.73,347A9.41,9.41,0,0,1,92.49,351.86Z"/><path class="cls-1" d="M407.51,351.86a9.41,9.41,0,0,1-8.24-4.86l-24.52-44.53a9.39,9.39,0,0,1,16.46-9.06l24.52,44.53a9.38,9.38,0,0,1-3.7,12.75A9.19,9.19,0,0,1,407.51,351.86Z"/></svg>