<svg id="Layer_2" data-name="Layer 2" xmlns="http://www.w3.org/2000/svg" viewBox="0 0 500 500"><defs><style>.cls-1{fill:#44d62c;}</style></defs><title>icons</title><path class="cls-1" d="M250,499C112.69,499,1,387.32,1,250S112.69,1,250,1,499,112.68,499,250,387.31,499,250,499Zm0-479.28C123,19.75,19.75,123,19.75,250S123,480.25,250,480.25,480.25,377,480.25,250,377,19.75,250,19.75Z"/><path class="cls-1" d="M342.6,291.11H157.4a6.46,6.46,0,0,1-6.46-6.46V172a12.77,12.77,0,0,1,12.74-12.76H336.32A12.77,12.77,0,0,1,349.06,172V284.65A6.46,6.46,0,0,1,342.6,291.11ZM163.85,278.19H336.14v-106H163.68Z"/><path class="cls-1" d="M351.52,340.73H148.35A13,13,0,0,1,135.2,328v-14.4a6.46,6.46,0,0,1,6.46-6.46H358.2a6.46,6.46,0,0,1,6.46,6.46V328A13,13,0,0,1,351.52,340.73ZM148.13,320.06V328l203.39-.19,0.12-7.75H148.13Z"/><path class="cls-1" d="M141.66,320.06a6.32,6.32,0,0,1-3.11-.81,6.45,6.45,0,0,1-2.54-8.77l16.87-30.63a6.46,6.46,0,0,1,11.32,6.23l-16.87,30.63A6.47,6.47,0,0,1,141.66,320.06Z"/><path class="cls-1" d="M358.34,320.06a6.47,6.47,0,0,1-5.67-3.34l-16.87-30.63a6.46,6.46,0,0,1,11.32-6.23L364,310.48a6.45,6.45,0,0,1-2.54,8.77A6.32,6.32,0,0,1,358.34,320.06Z"/></svg>