<svg id="Layer_2" data-name="Layer 2" xmlns="http://www.w3.org/2000/svg" viewBox="0 0 500 500"><defs><style>.cls-1{fill:none;}.cls-2{fill:#7E7E7E;}</style></defs><title>icons</title><rect class="cls-1" x="71.1" y="169.88" width="205.34" height="129.18"/><rect class="cls-1" x="160.38" y="314.19" width="26.76" height="21.1"/><polygon class="cls-1" points="96.33 360.08 251.2 360.08 251.2 350.35 194.68 350.35 152.84 350.35 96.33 350.35 96.33 360.08"/><path class="cls-1" d="M435,362.31v5.3a7.54,7.54,0,0,1-7.54,7.53H318a7.54,7.54,0,0,1-7.54-7.53V151.2a7.54,7.54,0,0,1,7.54-7.53H427.43A7.54,7.54,0,0,1,435,151.2V343.48h26.24A229.1,229.1,0,0,0,481,250.33c0-127.2-103.49-230.69-230.69-230.69S19.64,123.13,19.64,250.33a229.13,229.13,0,0,0,19.82,93.15H81.26v-0.66a7.54,7.54,0,0,1,7.54-7.53H145.3V314.11H63.56A7.54,7.54,0,0,1,56,306.58V162.35a7.54,7.54,0,0,1,7.54-7.53H284a7.54,7.54,0,0,1,7.54,7.53V306.58a7.54,7.54,0,0,1-7.54,7.53H202.21v21.19h56.52a7.54,7.54,0,0,1,7.54,7.53v24.79a7.54,7.54,0,0,1-7.54,7.53H88.8a7.54,7.54,0,0,1-7.54-7.53v-5.3H48.8C88.26,433,163.76,481,250.33,481s162.07-48,201.53-118.72H435Z"/><path class="cls-1" d="M419.89,360.08V158.73H325.56V360.08h94.34ZM349.4,190.18h51v15.05h-51V190.18Zm0,38.43h51v15.05h-51V228.61Z"/><path class="cls-2" d="M250.33,0.82C112.75,0.82.82,112.74,0.82,250.33S112.75,499.85,250.33,499.85,499.85,387.92,499.85,250.33,387.91,0.82,250.33.82Zm0,480.21C163.76,481,88.26,433,48.8,362.31H81.26v5.3a7.54,7.54,0,0,0,7.54,7.53H258.74a7.54,7.54,0,0,0,7.54-7.53V342.82a7.54,7.54,0,0,0-7.54-7.53H202.21V314.11H284a7.54,7.54,0,0,0,7.54-7.53V162.35a7.54,7.54,0,0,0-7.54-7.53H63.56A7.54,7.54,0,0,0,56,162.35V306.58a7.54,7.54,0,0,0,7.54,7.53H145.3v21.19H88.8a7.54,7.54,0,0,0-7.54,7.53v0.66H39.46a229.13,229.13,0,0,1-19.82-93.15c0-127.2,103.49-230.69,230.69-230.69S481,123.13,481,250.33a229.1,229.1,0,0,1-19.82,93.15H435V151.2a7.54,7.54,0,0,0-7.54-7.53H318a7.54,7.54,0,0,0-7.54,7.53V367.61a7.54,7.54,0,0,0,7.54,7.53H427.43a7.54,7.54,0,0,0,7.54-7.53v-5.3h16.9C412.41,433,336.91,481,250.33,481ZM71.1,299.05V169.88H276.44V299.05H71.1Zm89.28,15.14h26.76v21.1H160.38v-21.1Zm-7.54,36.16H251.2v9.73H96.33v-9.73h56.51ZM419.89,158.73V360.08H325.56V158.73h94.34Z"/><rect class="cls-2" x="349.4" y="190.18" width="50.97" height="15.05"/><rect class="cls-2" x="349.4" y="228.61" width="50.97" height="15.05"/></svg>